<svg width="500" height="500" viewBox="0 0 500 500" fill="none" xmlns="http://www.w3.org/2000/svg">
<path d="M255.535 356.037L243.528 406.734C238.363 430.212 235.781 448.916 235.781 462.848C235.781 476.522 237.46 488.906 240.817 500H149.792L156.377 484.133C165.931 461.945 172.645 442.595 176.518 426.084L185.427 386.997C187.751 377.193 190.333 367.002 193.174 356.424C137.139 357.714 96.0808 361.455 70 367.647V286.378C98.1466 292.828 144.24 296.698 208.28 297.988L233.457 201.238C156.247 201.238 101.762 205.108 70 212.848V131.579C100.987 139.319 160.25 143.189 247.789 143.189C261.216 86.6873 267.93 51.7286 267.93 38.3127C267.93 24.6388 266.123 11.8679 262.508 0H353.532L346.947 15.8669C337.393 38.0547 329.775 61.4035 324.094 85.9133L309.763 142.802C364.249 141.512 404.661 137.771 431 131.579V212.848C405.694 206.656 360.246 202.915 294.657 201.625L269.48 297.988C343.59 297.988 397.431 294.118 431 286.378V367.647C398.464 359.907 339.975 356.037 255.535 356.037Z" fill="#D20000"/>
</svg>
